<svg xmlns="http://www.w3.org/2000/svg" width="760" height="358" viewBox="0 0 760 358">
<rect width="760" height="358" fill="white" />
<text x="380" y="28" text-anchor="middle" font-size="22" font-weight="bold">
Global Feature Importance</text>
<text x="233" y="75" text-anchor="end" font-size="13">worst texture</text><rect x="245" y="60" width="450.00" height="20" fill="#2563eb" /><text x="703.0" y="75" font-size="12">1.242</text><text x="233" y="109" text-anchor="end" font-size="13">radius error</text><rect x="245" y="94" width="394.09" height="20" fill="#2563eb" /><text x="647.0906999520939" y="109" font-size="12">1.088</text><text x="233" y="143" text-anchor="end" font-size="13">worst area</text><rect x="245" y="128" width="354.73" height="20" fill="#2563eb" /><text x="607.734654784339" y="143" font-size="12">0.979</text><text x="233" y="177" text-anchor="end" font-size="13">area error</text><rect x="245" y="162" width="347.06" height="20" fill="#2563eb" /><text x="600.0600990374915" y="177" font-size="12">0.958</text><text x="233" y="211" text-anchor="end" font-size="13">worst radius</text><rect x="245" y="196" width="342.68" height="20" fill="#2563eb" /><text x="595.6787047152687" y="211" font-size="12">0.946</text><text x="233" y="245" text-anchor="end" font-size="13">worst concave points</text><rect x="245" y="230" width="342.42" height="20" fill="#2563eb" /><text x="595.4233385843186" y="245" font-size="12">0.945</text><text x="233" y="279" text-anchor="end" font-size="13">worst symmetry</text><rect x="245" y="264" width="336.42" height="20" fill="#2563eb" /><text x="589.4224408649882" y="279" font-size="12">0.929</text><text x="233" y="313" text-anchor="end" font-size="13">worst concavity</text><rect x="245" y="298" width="299.64" height="20" fill="#2563eb" /><text x="552.6373023416483" y="313" font-size="12">0.827</text>
</svg>
